<?xml version="1.0" encoding="UTF-8"?><svg id="Laag_1" xmlns="http://www.w3.org/2000/svg" viewBox="0 0 271.64 189.08"><defs><style>.cls-1{fill:#fe5a17;}.cls-2,.cls-3,.cls-4,.cls-5,.cls-6,.cls-7,.cls-8,.cls-9{fill:#fff;}.cls-10,.cls-8{opacity:.6;}.cls-3{opacity:.3;}.cls-4{opacity:.5;}.cls-5,.cls-11{opacity:.8;}.cls-6{opacity:.7;}.cls-7{opacity:.89;}.cls-12{fill:#b00b4b;}.cls-9{font-family:Futura-CondensedMedium, 'Futura CondensedMedium';font-size:10px;font-weight:500;}.cls-13{fill:#666;}</style></defs><text class="cls-9" transform="translate(202.38 186.58)"><tspan x="0" y="0"> </tspan></text><g><path class="cls-12" d="m98.11,131.24c-2.08-4.07-7.07-5.69-11.14-3.61-3.22,1.64-4.89,5.1-4.43,8.48h16.39c.22-1.62-.03-3.32-.83-4.88Z"/><path class="cls-12" d="m82.39,120.58v5.06c.95.64,2.33.73,3.56.1,1.3-.67,2.06-1.93,2.02-3.14-.02-.44.32-.82.76-.88.6-.09,1.2-.14,1.8-.15.44,0,.84.31.89.75.14,1.21,1.09,2.35,2.49,2.8,1.41.46,2.85.09,3.67-.82.3-.33.81-.36,1.16-.09.48.36.94.75,1.38,1.17.32.31.37.82.09,1.16-.77.96-.91,2.44-.23,3.76.67,1.32,1.96,2.08,3.18,2.02.44-.02.82.32.89.76.09.6.13,1.2.14,1.8,0,.44-.32.84-.76.89-.38.04-.76.17-1.11.36h15.38v-13.25h-21.42v-10.92h19.22v-12.52h-19.22v-9.73h21.42v-13.25h-35.31v44.12Z"/><path class="cls-2" d="m104.19,134.87c0-.6-.05-1.2-.14-1.8-.06-.44-.44-.78-.89-.76-1.23.06-2.51-.7-3.18-2.02-.67-1.32-.54-2.81.23-3.76.28-.35.23-.85-.09-1.16-.43-.42-.9-.81-1.38-1.17-.36-.26-.86-.24-1.16.09-.82.91-2.27,1.28-3.67.82-1.4-.45-2.35-1.59-2.49-2.8-.05-.44-.44-.75-.89-.75-.6,0-1.2.06-1.8.15-.44.07-.78.44-.76.88.05,1.21-.71,2.48-2.02,3.14-1.23.63-2.61.55-3.56-.1v10.48h.16c-.46-3.39,1.21-6.84,4.43-8.48,4.07-2.08,9.06-.47,11.14,3.61.8,1.56,1.05,3.26.83,4.88h3.38c.35-.19.72-.32,1.11-.36.44-.05.76-.44.76-.89Z"/></g><g><polygon class="cls-12" points="134.63 131.74 131.88 136.12 133.01 136.12 135.58 132.01 136.15 131.11 136.83 128.21 134.63 131.74"/><path class="cls-12" d="m153.28,76.86l-.11-.4h-16.57l-5.22,19.1c3.4-3.61,8.56-6.45,8.56-6.45-3.72,4.6,3.08,10.16.36,15.52-1.03,2.03-2.92,3.18-4.82,3.43l-2.83,12.48-1.7,7.49-.79,3.49,1.75-2.8,3.89-6.21,1.3-2.08,2.81-4.48.81-1.29.24.15,1.12.7-1.47,2.35-1.89,3.02-5.65,9.03-3.9,6.23h1.14l3.34-5.33,7.26-11.59,1.99-3.18.52.33.62.39-5.84,9.32h1.13l2.05-3.27,1.71-2.73,1.76-2.8,1.08.67.28.17-4.99,7.96h11.21l2.38,10.07h14.68l-16.2-59.27Z"/><path class="cls-12" d="m126.95,121.58l3.47-15.28c-.6-.53-1.11-1.14-1.48-1.83l-8.65,31.65h3.36l2.12-9.34,1.18-5.2Z"/><polygon class="cls-1" points="134.97 136.12 135.01 135.93 134.89 136.12 134.97 136.12"/></g><polygon class="cls-2" points="141.65 113.92 141.31 113.71 142.13 113.27 147.06 110.66 146.82 117.16 141.65 113.92"/><path class="cls-6" d="m93.67,106.44c-.1,0-.21-.04-.28-.13-1.81-2.04-4.31-3.35-7.03-3.69-.21-.03-.36-.21-.33-.42.03-.21.22-.36.42-.33,2.91.36,5.57,1.75,7.51,3.94.14.16.12.4-.03.53-.07.06-.16.1-.25.1Z"/><g><path class="cls-12" d="m28.46,128.9c.73,2.36,2.48,4.13,4.61,4.98,4.22-2.71,6.88-7.13,7.61-12.83l-12.4,3.85c-.28,1.28-.24,2.65.18,4Z"/><path class="cls-12" d="m35.31,120.05c.31-.1.49-.43.39-.75-.1-.31-.43-.49-.75-.39-.31.1-.49.43-.39.75.1.31.43.49.75.39Z"/><path class="cls-12" d="m34.34,122.18c.5-.16.79-.69.63-1.2s-.69-.79-1.2-.63c-.5.16-.79.69-.63,1.2.16.5.69.79,1.2.63Z"/><path class="cls-2" d="m28.46,128.9c-.42-1.34-.46-2.71-.18-4l12.4-3.85c.12-.94.2-1.9.21-2.9-1.33-.77-2.83-1.23-4.39-1.31l-2.07-6.66.33-.1c.6-.19.94-.83.76-1.44-.19-.6-.83-.94-1.44-.76l-7.09,2.2c-.6.19-.94.83-.76,1.44.19.6.83.94,1.44.76l.33-.1,2.07,6.66c-3.14,2.41-4.62,6.61-3.37,10.62.75,2.42,2.37,4.33,4.41,5.52.69-.32,1.34-.69,1.97-1.09-2.13-.85-3.87-2.62-4.61-4.98Zm6.49-9.99c.31-.1.65.08.75.39.1.31-.08.65-.39.75-.31.1-.65-.08-.75-.39-.1-.31.08-.65.39-.75Zm-1.18,1.44c.5-.16,1.04.13,1.2.63s-.13,1.04-.63,1.2-1.04-.13-1.2-.63c-.16-.5.13-1.04.63-1.2Z"/></g><g><path class="cls-12" d="m78.37,82.3c0,.96.3,1.92.97,2.09v-4.19c-.7.17-.97,1.16-.97,2.09Z"/><path class="cls-12" d="m54.11,93.5c.21,0,.71,0,.71-1.28s-.53-1.28-.71-1.28c0,0-.01,0-.02,0v2.55s.01,0,.02,0Z"/><path class="cls-12" d="m77.52,82.3c0-1.73.69-2.83,1.82-2.96v-2.89h-36.59v13.07h11.35v.91s.01,0,.02,0c.46,0,1.22.23,1.22,1.79s-.66,1.79-1.22,1.79c0,0-.01,0-.02,0v42.11h13.89v-46.59h11.35v-4.27c-1.09-.14-1.82-1.28-1.82-2.95Z"/><path class="cls-2" d="m78.37,82.3c0-.94.26-1.92.97-2.09v-.86c-1.12.13-1.82,1.23-1.82,2.96s.72,2.82,1.82,2.95v-.86c-.66-.17-.97-1.13-.97-2.09Z"/><path class="cls-2" d="m55.33,92.22c0-1.56-.76-1.79-1.22-1.79,0,0-.01,0-.02,0v.51s.01,0,.02,0c.18,0,.71,0,.71,1.28s-.5,1.28-.71,1.28c0,0-.01,0-.02,0v.51s.01,0,.02,0c.56,0,1.22-.31,1.22-1.79Z"/></g><g><path class="cls-12" d="m1.18,89.7s0-.01-.01-.02c-.15.98-.25,1.99-.25,3.06,0,12.74,9.24,15.85,16.66,18.35,5.38,1.81,9.63,3.24,9.52,7.55-.09,3.66-2.06,5.52-5.87,5.52-4.93,0-7.33-2.76-7.33-8.43v-.54H0v.54c0,14.48,6.83,21.23,21.5,21.23,3.65,0,6.88-.69,9.6-1.97-2.03-1.18-3.65-3.09-4.41-5.52-1.25-4.01.23-8.21,3.37-10.62l-2.07-6.66-.33.1c-.6.19-1.25-.15-1.44-.76-.19-.6.15-1.25.76-1.44l7.09-2.2c.6-.19,1.25.15,1.44.76.19.6-.15,1.25-.76,1.44l-.33.1,2.07,6.66c1.56.08,3.07.54,4.39,1.31,0-.11.01-.22.01-.33,0-12.86-9.37-15.72-16.89-18.01-5.14-1.57-9.2-2.8-9.2-6.61s2.99-4.77,5.5-4.77c4.31,0,6.24,2.23,6.24,7.24v.54h13.8v-.54c0-13.11-6.87-20.04-19.85-20.04-7.22,0-12.79,2.36-16.11,6.5-1.67,2.08-2.77,4.62-3.22,7.55,0,0,0,.01.01.02"/><path class="cls-8" d="m7.54,89.91c1.82-1.7,1.91-4.55.21-6.37-.91-.97-2.14-1.43-3.37-1.41-1.67,2.08-2.77,4.62-3.22,7.55,0,0,0,.01.01.02,1.7,1.82,4.55,1.91,6.37.21Z"/></g><circle class="cls-4" cx="8.92" cy="95.25" r="2.65"/><circle class="cls-2" cx="11.57" cy="95.25" r="1.65"/><path class="cls-8" d="m147.44,87.79s-4.26,4.81-4.57,8.38c-.25,2.92,1.69,4.32,3.89,4.6,1.89.24,4-1.21,4.3-3.55.49-3.88-4.9-5.8-3.62-9.43Z"/><path class="cls-2" d="m150.9,83.15s2.38,2.68,2.55,4.67c.14,1.63-.94,2.4-2.17,2.56-1.05.13-2.23-.67-2.4-1.98-.28-2.16,2.73-3.23,2.02-5.26Z"/><g><path class="cls-12" d="m230.46,76.46h-18.81l-10.11,40.52-10.2-40.52h-18.81v59.66h13.89v-32.66l8.47,32.66h13.19l8.48-32.66v32.66h13.89v-59.66Zm-2.84,28.46h-5.39c-.45,0-.82-.37-.82-.82s.37-.82.82-.82h5.39c.45,0,.82.37.82.82s-.37.82-.82.82Z"/><polygon class="cls-12" points="230.46 86.13 230.46 81.46 228.12 83.8 230.46 86.13"/></g><g><path class="cls-2" d="m68.39,84.95c-.24,0-.43-.19-.43-.43v-4.23l-1.32.45c-.22.08-.46-.04-.54-.26s.04-.46.26-.54l1.88-.65c.13-.04.27-.02.39.06.11.08.18.21.18.35v4.83c0,.24-.19.43-.43.43Z"/><path class="cls-2" d="m69.93,85.22h-3.11c-.23,0-.41-.18-.41-.41s.18-.41.41-.41h3.11c.23,0,.41.18.41.41s-.18.41-.41.41Z"/><path class="cls-2" d="m62.95,85.14c-.24,0-.43-.19-.43-.43v-4.41l-1.31.45c-.22.08-.46-.04-.54-.26s.04-.46.26-.54l1.88-.65c.13-.04.27-.02.39.06.11.08.18.21.18.35v5.01c0,.24-.19.43-.43.43Z"/><path class="cls-2" d="m64.49,85.21h-3.11c-.23,0-.41-.18-.41-.41s.18-.41.41-.41h3.11c.23,0,.41.18.41.41s-.18.41-.41.41Z"/></g><g class="cls-10"><path class="cls-2" d="m66,88.22c-.28,0-.51-.23-.51-.51v-5.3l-1.58.54c-.27.09-.56-.05-.65-.32s.05-.56.32-.65l2.25-.78c.16-.05.33-.03.46.07.13.1.21.25.21.42v6.01c0,.28-.23.51-.51.51Z"/><path class="cls-2" d="m67.84,88.31h-3.74c-.27,0-.49-.22-.49-.49s.22-.49.49-.49h3.74c.27,0,.49.22.49.49s-.22.49-.49.49Z"/><path class="cls-2" d="m72.57,88.22c-.28,0-.51-.23-.51-.51v-5.3l-1.58.54c-.26.09-.56-.05-.65-.32s.05-.56.32-.65l2.25-.78c.16-.05.33-.03.46.07s.21.25.21.42v6.01c0,.28-.23.51-.51.51Z"/><path class="cls-2" d="m74.41,88.31h-3.74c-.27,0-.49-.22-.49-.49s.22-.49.49-.49h3.74c.27,0,.49.22.49.49s-.22.49-.49.49Z"/><path class="cls-2" d="m52.32,88.39c-1.46,0-2.44-1.44-2.44-3.58s.93-3.58,2.44-3.58c.91,0,2.44.46,2.44,3.58s-1.33,3.58-2.44,3.58Zm0-6.13c-1.04,0-1.42,1.32-1.42,2.55s.44,2.55,1.42,2.55c.42,0,1.42,0,1.42-2.55s-1.07-2.55-1.42-2.55Z"/></g><g class="cls-11"><path class="cls-2" d="m60.95,93.93c-.14,0-.26-.11-.26-.26v-2.65l-.79.27c-.13.05-.28-.03-.32-.16s.03-.28.16-.32l1.13-.39c.08-.03.16-.01.23.03.07.05.11.13.11.21v3.01c0,.14-.11.26-.26.26Z"/><path class="cls-2" d="m61.88,93.97h-1.87c-.14,0-.25-.11-.25-.25s.11-.25.25-.25h1.87c.14,0,.25.11.25.25s-.11.25-.25.25Z"/><path class="cls-2" d="m64.24,93.93c-.14,0-.26-.11-.26-.26v-2.65l-.79.27c-.13.05-.28-.03-.32-.16s.03-.28.16-.32l1.13-.39c.08-.03.16-.01.23.03s.11.13.11.21v3.01c0,.14-.11.26-.26.26Z"/><path class="cls-2" d="m65.16,93.97h-1.87c-.14,0-.25-.11-.25-.25s.11-.25.25-.25h1.87c.14,0,.25.11.25.25s-.11.25-.25.25Z"/></g><g><circle class="cls-3" cx="32.2" cy="128.74" r="1.93"/><circle class="cls-6" cx="34.57" cy="129.65" r="1.04"/><circle class="cls-8" cx="24.54" cy="103.41" r="1.64"/></g><g><path class="cls-13" d="m1.84,147.98c.12.77.63,1.16,1.36,1.16s1.2-.37,1.2-1.02-.33-.96-1.4-1.28c-1.34-.4-1.84-.85-1.84-1.76,0-1.03.79-1.67,1.96-1.67,1.38,0,1.97.79,2.04,1.7h-.87c-.09-.61-.43-1-1.19-1-.7,0-1.05.34-1.05.89s.32.78,1.31,1.08c1.56.47,1.94,1.07,1.94,1.94,0,1.04-.71,1.82-2.14,1.82-1.32,0-2.11-.7-2.2-1.86h.87Z"/><path class="cls-13" d="m11.03,147.91c-.18,1.01-.85,1.95-2.35,1.95-1.87,0-2.57-1.41-2.57-3.27,0-1.68.82-3.19,2.61-3.19,1.49,0,2.16.92,2.27,1.96h-.87c-.15-.69-.51-1.23-1.43-1.23-1.2,0-1.68,1.17-1.68,2.46s.39,2.54,1.68,2.54c.92,0,1.28-.56,1.46-1.22h.87Z"/><path class="cls-13" d="m12.95,143.49v6.28h-.87v-6.28h.87Z"/><path class="cls-13" d="m18.17,146.85h-2.81v2.18h3.09l-.11.74h-3.83v-6.28h3.79v.74h-2.94v1.88h2.81v.75Z"/><path class="cls-13" d="m19.46,149.77v-6.28h1.15c2.38,4.34,2.72,4.94,2.83,5.22h.01c-.06-.82-.07-1.83-.07-2.85v-2.37h.82v6.28h-1.07c-2.55-4.71-2.75-5.13-2.88-5.38h0c.05.81.04,1.87.04,2.99v2.39h-.81Z"/><path class="cls-13" d="m30.34,147.91c-.18,1.01-.85,1.95-2.35,1.95-1.87,0-2.57-1.41-2.57-3.27,0-1.68.82-3.19,2.61-3.19,1.49,0,2.16.92,2.27,1.96h-.87c-.15-.69-.51-1.23-1.43-1.23-1.2,0-1.68,1.17-1.68,2.46s.39,2.54,1.68,2.54c.92,0,1.28-.56,1.46-1.22h.87Z"/><path class="cls-13" d="m35.04,146.85h-2.81v2.18h3.09l-.11.74h-3.83v-6.28h3.79v.74h-2.94v1.88h2.81v.75Z"/><path class="cls-13" d="m41.61,142.45v8.3h-.74v-8.3h.74Z"/><path class="cls-13" d="m48.72,144.23h-1.81v-.75h4.51v.75h-1.82v5.53h-.88v-5.53Z"/><path class="cls-13" d="m55.93,146.85h-2.81v2.18h3.09l-.11.74h-3.83v-6.28h3.79v.74h-2.94v1.88h2.81v.75Z"/><path class="cls-13" d="m61.91,147.91c-.18,1.01-.85,1.95-2.35,1.95-1.87,0-2.57-1.41-2.57-3.27,0-1.68.82-3.19,2.61-3.19,1.49,0,2.16.92,2.27,1.96h-.87c-.15-.69-.51-1.23-1.43-1.23-1.2,0-1.68,1.17-1.68,2.46s.39,2.54,1.68,2.54c.92,0,1.28-.56,1.46-1.22h.87Z"/><path class="cls-13" d="m62.95,143.49h.87v2.61h2.81v-2.61h.88v6.28h-.88v-2.92h-2.81v2.92h-.87v-6.28Z"/><path class="cls-13" d="m69.06,149.77v-6.28h1.15c2.38,4.34,2.72,4.94,2.83,5.22h.01c-.06-.82-.07-1.83-.07-2.85v-2.37h.82v6.28h-1.07c-2.55-4.71-2.75-5.13-2.88-5.38h0c.05.81.04,1.87.04,2.99v2.39h-.81Z"/><path class="cls-13" d="m80.38,146.59c0,1.8-.84,3.27-2.71,3.27s-2.64-1.4-2.64-3.27c0-1.63.85-3.19,2.72-3.19,1.76,0,2.63,1.4,2.63,3.19Zm-4.44,0c0,1.43.58,2.55,1.78,2.55s1.77-1.09,1.77-2.54-.53-2.47-1.77-2.47-1.77,1.1-1.77,2.46Z"/><path class="cls-13" d="m81.61,143.49h.87v5.54h2.98l-.12.74h-3.74v-6.28Z"/><path class="cls-13" d="m91.18,146.59c0,1.8-.84,3.27-2.71,3.27s-2.64-1.4-2.64-3.27c0-1.63.85-3.19,2.72-3.19,1.76,0,2.63,1.4,2.63,3.19Zm-4.44,0c0,1.43.58,2.55,1.78,2.55s1.77-1.09,1.77-2.54-.53-2.47-1.77-2.47-1.77,1.1-1.77,2.46Z"/><path class="cls-13" d="m97.11,149.77h-.67c-.04-.18-.06-.46-.08-.87-.33.7-.95.96-1.82.96-1.64,0-2.45-1.4-2.45-3.2s.96-3.26,2.73-3.26c1.36,0,2.12.74,2.3,1.83h-.86c-.17-.63-.57-1.1-1.48-1.1-1.26,0-1.79,1.13-1.79,2.53,0,1.32.51,2.47,1.71,2.47,1.27,0,1.54-.88,1.54-1.97v-.04h-1.57v-.76h2.43v3.41Z"/><path class="cls-13" d="m99.6,149.77v-2.46c0-.06-.02-.13-.05-.17l-2.03-3.65h.99c.51.98,1.31,2.45,1.57,2.96.47-.9,1.08-2.03,1.57-2.96h.92l-2.06,3.66s-.04.09-.04.16v2.46h-.87Z"/><path class="cls-13" d="m108.43,142.45v8.3h-.74v-8.3h.74Z"/><path class="cls-13" d="m118.04,146.85h-2.81v2.18h3.09l-.11.74h-3.83v-6.28h3.79v.74h-2.94v1.88h2.81v.75Z"/><path class="cls-13" d="m119.33,149.77v-6.28h1.15c2.38,4.34,2.71,4.94,2.83,5.22h.01c-.06-.82-.07-1.83-.07-2.85v-2.37h.82v6.28h-1.07c-2.55-4.71-2.75-5.13-2.88-5.38h0c.04.81.04,1.87.04,2.99v2.39h-.82Z"/><path class="cls-13" d="m130.31,149.77h-.67c-.04-.18-.06-.46-.08-.87-.33.7-.95.96-1.82.96-1.64,0-2.45-1.4-2.45-3.2s.96-3.26,2.73-3.26c1.36,0,2.12.74,2.3,1.83h-.86c-.17-.63-.57-1.1-1.48-1.1-1.26,0-1.79,1.13-1.79,2.53,0,1.32.51,2.47,1.71,2.47,1.27,0,1.54-.88,1.54-1.97v-.04h-1.57v-.76h2.43v3.41Z"/><path class="cls-13" d="m132.56,143.49v6.28h-.87v-6.28h.87Z"/><path class="cls-13" d="m134.12,149.77v-6.28h1.15c2.38,4.34,2.71,4.94,2.83,5.22h.01c-.06-.82-.07-1.83-.07-2.85v-2.37h.82v6.28h-1.07c-2.55-4.71-2.75-5.13-2.88-5.38h0c.04.81.04,1.87.04,2.99v2.39h-.82Z"/><path class="cls-13" d="m144.07,146.85h-2.81v2.18h3.09l-.11.74h-3.83v-6.28h3.79v.74h-2.94v1.88h2.81v.75Z"/><path class="cls-13" d="m149.02,146.85h-2.81v2.18h3.09l-.11.74h-3.83v-6.28h3.79v.74h-2.94v1.88h2.81v.75Z"/><path class="cls-13" d="m151.18,146.96v2.81h-.87v-6.28h2.29c1.12,0,1.92.56,1.92,1.63,0,.9-.52,1.3-1.02,1.47.65.22.92.73.92,1.57v.12c0,.58.02,1.12.09,1.49h-.86c-.09-.25-.11-.81-.11-1.48v-.13c0-.86-.31-1.19-1.3-1.19h-1.05Zm0-.71h1.12c.78,0,1.33-.22,1.33-1.07,0-.65-.44-.98-1.15-.98h-1.3v2.04Z"/><path class="cls-13" d="m156.66,143.49v6.28h-.87v-6.28h.87Z"/><path class="cls-13" d="m158.21,149.77v-6.28h1.15c2.38,4.34,2.71,4.94,2.83,5.22h.01c-.06-.82-.07-1.83-.07-2.85v-2.37h.82v6.28h-1.07c-2.55-4.71-2.75-5.13-2.88-5.38h0c.04.81.04,1.87.04,2.99v2.39h-.82Z"/><path class="cls-13" d="m169.19,149.77h-.67c-.04-.18-.06-.46-.08-.87-.33.7-.95.96-1.82.96-1.64,0-2.45-1.4-2.45-3.2s.96-3.26,2.73-3.26c1.36,0,2.12.74,2.3,1.83h-.86c-.17-.63-.57-1.1-1.48-1.1-1.26,0-1.79,1.13-1.79,2.53,0,1.32.51,2.47,1.71,2.47,1.27,0,1.54-.88,1.54-1.97v-.04h-1.57v-.76h2.43v3.41Z"/><path class="cls-13" d="m175.77,142.45v8.3h-.74v-8.3h.74Z"/><path class="cls-13" d="m182.54,147.94l-.58,1.83h-.87c.37-1.11,1.6-5.02,2.02-6.28h1.11l2.11,6.28h-.93l-.6-1.83h-2.26Zm2.06-.75c-.5-1.55-.83-2.48-.96-3h-.01c-.17.73-.49,1.7-.9,3h1.87Z"/><path class="cls-13" d="m188.07,146.96v2.81h-.87v-6.28h2.29c1.12,0,1.92.56,1.92,1.63,0,.9-.52,1.3-1.02,1.47.65.22.92.73.92,1.57v.12c0,.58.02,1.12.09,1.49h-.86c-.09-.25-.11-.81-.11-1.48v-.13c0-.86-.31-1.19-1.3-1.19h-1.05Zm0-.71h1.12c.78,0,1.33-.22,1.33-1.07,0-.65-.44-.98-1.15-.98h-1.3v2.04Z"/><path class="cls-13" d="m193.83,144.23h-1.81v-.75h4.51v.75h-1.82v5.53h-.88v-5.53Z"/><path class="cls-13" d="m202.74,142.45v8.3h-.74v-8.3h.74Z"/><path class="cls-13" d="m213.78,147.16c0-1.14.01-2.36.04-3.03h-.03c-.29,1.16-1.2,3.84-1.83,5.64h-.8c-.47-1.5-1.4-4.44-1.69-5.65h-.04c.05.73.07,2.12.07,3.2v2.45h-.82v-6.28h1.31c.61,1.78,1.4,4.28,1.61,5.16h.01c.13-.64,1.08-3.36,1.72-5.16h1.28v6.28h-.85v-2.61Z"/><path class="cls-13" d="m216.93,147.94l-.58,1.83h-.87c.37-1.11,1.6-5.02,2.02-6.28h1.11l2.11,6.28h-.93l-.6-1.83h-2.26Zm2.06-.75c-.5-1.55-.83-2.48-.96-3h-.01c-.17.73-.49,1.7-.9,3h1.87Z"/><path class="cls-13" d="m222.02,144.23h-1.81v-.75h4.51v.75h-1.82v5.53h-.88v-5.53Z"/><path class="cls-13" d="m225.56,143.49h.87v2.61h2.81v-2.61h.88v6.28h-.88v-2.92h-2.81v2.92h-.87v-6.28Z"/></g><path class="cls-6" d="m228.12,83.8l2.33-2.33v-2.72c-.62-.41-1.46-.34-2.01.21l-2.59,2.59-2.59-2.59c-.62-.63-1.64-.63-2.26,0-.63.62-.63,1.64,0,2.26l2.59,2.59-2.59,2.59c-.63.62-.63,1.64,0,2.26.31.31.72.47,1.13.47s.82-.16,1.13-.47l2.59-2.59,2.59,2.59c.31.31.72.47,1.13.47.31,0,.61-.09.88-.26v-2.72l-2.33-2.33Z"/><path class="cls-2" d="m208.38,99.7c0,.6.49,1.09,1.09,1.09s1.09-.49,1.09-1.09v-2.5h2.5c.6,0,1.09-.49,1.09-1.09s-.49-1.09-1.09-1.09h-2.5v-2.5c0-.6-.49-1.09-1.09-1.09s-1.09.49-1.09,1.09v2.5h-1.36l-.55,2.19h1.9v2.5Z"/><path class="cls-7" d="m227.62,103.28h-5.39c-.45,0-.82.37-.82.82s.37.82.82.82h5.39c.45,0,.82-.37.82-.82s-.37-.82-.82-.82Z"/><path class="cls-5" d="m84.45,122.55c.04.3.31.52.62.52.42,0,.83-.03,1.25-.09.3-.04.54-.3.53-.6-.02-.84.5-1.7,1.4-2.16.91-.46,1.93-.38,2.59.15.24.19.59.15.81-.07.3-.3.57-.62.82-.95.18-.25.17-.6-.06-.8-.62-.57-.87-1.57-.56-2.54.32-.98,1.11-1.64,1.96-1.73.31-.03.53-.31.53-.62,0-.42-.04-.83-.1-1.25-.04-.31-.31-.54-.62-.53-.85.04-1.74-.48-2.21-1.4-.47-.92-.37-1.95.16-2.61.19-.24.16-.59-.06-.81-.3-.29-.62-.57-.96-.81-.25-.18-.6-.16-.81.07-.57.63-1.57.89-2.55.57-.97-.31-1.63-1.1-1.73-1.94-.04-.3-.31-.52-.62-.52-.42,0-.83.04-1.25.1-.3.05-.54.31-.53.61.02.58-.24,1.17-.68,1.63v1.86c2.83-1.44,6.29-.32,7.73,2.5,1.44,2.83.32,6.29-2.5,7.73-1.71.87-3.64.8-5.23,0v1.73c.11.02.23.03.34.06.96.31,1.61,1.08,1.72,1.9Z"/><polygon class="cls-12" points="271.64 4.67 271.64 0 269.31 2.33 271.64 4.67"/></svg>