<?xml version="1.0" encoding="UTF-8"?><svg id="Laag_1" xmlns="http://www.w3.org/2000/svg" viewBox="0 0 194.62 166.42"><defs><style>.cls-1{fill:#d57f2f;}.cls-2{fill:#434648;}.cls-3{fill:#8db335;}.cls-4{fill:#c3a823;}.cls-5{fill:#0e8c98;}</style></defs><rect class="cls-5" x="150.4" y="122.2" width="44.22" height="44.22"/><rect class="cls-4" x="150.4" y="50.17" width="44.22" height="44.22"/><rect class="cls-3" x="100.26" width="44.22" height="44.22"/><rect class="cls-1" x="100.26" y="100.36" width="44.22" height="44.22"/><g><path class="cls-2" d="m9.73,65.01l-3.89.53-.88-5.94,6.49-.98c1.43-3.77,2.83-6.14,4.42-8.43H0v44.22h10.18c-5.6-7.79-1.5-25.89-.45-29.4Z"/><path class="cls-2" d="m44.22,50.19h-21.39c-.72.91-3.62,5.91-3.74,7.37l6.63-1.04.8,5.99-9.14,1.38c-7.62,30.11-1.58,28.84,15.76,15.32l3.79,5.31c-5.04,4.98-10.91,8.93-13.3,9.9h20.59v-44.22Z"/></g><g><path class="cls-2" d="m79.99,73.63c-5.76.21-9.54,2.31-15.86,1.68-16.28-1.61-1.68-16.85,11.93-25.13h-25.94v44.22h11.06c16.96-5.5,28.22-21.76,18.81-20.78Z"/><path class="cls-2" d="m86.17,50.19c-11.51,6.81-19.3,15.44-19.44,16.14-1.47,2.25,0,2.1,5.47,1.15,1.53-.22.99-.19,5.9-.45,18.45-.97,15.72,18.46-2.74,27.37h18.99v-44.22h-8.18Z"/></g><path class="cls-2" d="m138.61,50s-7.13-.85-13.52,14.88c1.28-12.42-.74-14.68-3.31-14.69-7.7-.02-13.12,11.77-15.58,17.8.21-1.94.88-15.75,1-17.91l-6.94.1v44.2h6.64s.15-9.7,1-13.69c1.39-6.51,3.23-12.32,6.84-17.77,2.39-3.61,3.88-5.71,4.63-5.51,2.02,1.56-1.21,36.86-1.23,36.97h6.76c2.34-18.15,2.79-22.96,7.21-31.44,1.68-3.21,4.9-7.31,5.78-5.86.58.94.83,5.29.44,10.01-.49,5.85-1.02,16.06-1.97,27.3h6.43s1.01-17.8,1.54-27.47c.69-12.64-1.65-16.96-5.73-16.92Z"/></svg>